<?xml version="1.0" encoding="UTF-8" standalone="no"?>
<!-- Created with Inkscape (http://www.inkscape.org/) -->

<svg
   width="63.5mm"
   height="63.5mm"
   viewBox="0 0 63.500001 63.500001"
   version="1.1"
   id="svg1"
   inkscape:version="1.3 (0e150ed6c4, 2023-07-21)"
   sodipodi:docname="start.svg"
   inkscape:export-filename="start.svg"
   inkscape:export-xdpi="96"
   inkscape:export-ydpi="96"
   inkscape:dataloss="true"
   xmlns:inkscape="http://www.inkscape.org/namespaces/inkscape"
   xmlns:sodipodi="http://sodipodi.sourceforge.net/DTD/sodipodi-0.dtd"
   xmlns="http://www.w3.org/2000/svg"
   xmlns:svg="http://www.w3.org/2000/svg">
  <sodipodi:namedview
     id="namedview1"
     pagecolor="#ffffff"
     bordercolor="#000000"
     borderopacity="0.25"
     inkscape:showpageshadow="2"
     inkscape:pageopacity="0.0"
     inkscape:pagecheckerboard="true"
     inkscape:deskcolor="#d1d1cf"
     inkscape:document-units="mm"
     inkscape:zoom="4"
     inkscape:cx="40.625"
     inkscape:cy="50.375"
     inkscape:window-width="1920"
     inkscape:window-height="1001"
     inkscape:window-x="-9"
     inkscape:window-y="-9"
     inkscape:window-maximized="1"
     inkscape:current-layer="layer1"
     labelstyle="default"
     showguides="true" />
  <defs
     id="defs1">
    <inkscape:path-effect
       effect="mirror_symmetry"
       start_point="68.220735,111.54084"
       end_point="68.220735,154.47768"
       center_point="68.220735,133.00926"
       id="path-effect95"
       is_visible="true"
       lpeversion="1.2"
       lpesatellites=""
       mode="free"
       discard_orig_path="false"
       fuse_paths="false"
       oposite_fuse="false"
       split_items="false"
       split_open="false"
       link_styles="false" />
    <inkscape:path-effect
       effect="mirror_symmetry"
       start_point="-76.042914,-6.3835821"
       end_point="-76.042914,11.525919"
       center_point="-76.042914,2.5711685"
       id="path-effect94"
       is_visible="true"
       lpeversion="1.2"
       lpesatellites=""
       mode="free"
       discard_orig_path="false"
       fuse_paths="false"
       oposite_fuse="false"
       split_items="false"
       split_open="false"
       link_styles="false" />
    <inkscape:path-effect
       effect="mirror_symmetry"
       start_point="-79.389969,-10.848287"
       end_point="-79.389969,30.032573"
       center_point="-79.389969,9.592143"
       id="path-effect93"
       is_visible="true"
       lpeversion="1.2"
       lpesatellites=""
       mode="free"
       discard_orig_path="false"
       fuse_paths="false"
       oposite_fuse="false"
       split_items="false"
       split_open="false"
       link_styles="false" />
    <inkscape:path-effect
       effect="mirror_symmetry"
       start_point="-185.21403,1.9843823"
       end_point="-185.21403,61.984338"
       center_point="-185.21403,31.98436"
       id="path-effect92"
       is_visible="true"
       lpeversion="1.2"
       lpesatellites=""
       mode="free"
       discard_orig_path="false"
       fuse_paths="false"
       oposite_fuse="false"
       split_items="false"
       split_open="false"
       link_styles="false" />
    <inkscape:path-effect
       effect="mirror_symmetry"
       start_point="-93.33178,86.518759"
       end_point="-92.934898,71.172924"
       center_point="-93.133339,78.845842"
       id="path-effect88"
       is_visible="true"
       lpeversion="1.2"
       lpesatellites=""
       mode="free"
       discard_orig_path="true"
       fuse_paths="true"
       oposite_fuse="false"
       split_items="false"
       split_open="false"
       link_styles="false" />
    <inkscape:path-effect
       effect="mirror_symmetry"
       start_point="-132.45018,19.757805"
       end_point="-132.45018,67.55896"
       center_point="-132.45018,43.658383"
       id="path-effect74"
       is_visible="true"
       lpeversion="1.2"
       lpesatellites=""
       mode="free"
       discard_orig_path="false"
       fuse_paths="false"
       oposite_fuse="false"
       split_items="false"
       split_open="false"
       link_styles="false" />
    <inkscape:path-effect
       effect="mirror_symmetry"
       start_point="-106.69324,18.917716"
       end_point="-106.69324,71.834384"
       center_point="-106.69324,45.37605"
       id="path-effect73"
       is_visible="true"
       lpeversion="1.2"
       lpesatellites=""
       mode="free"
       discard_orig_path="false"
       fuse_paths="false"
       oposite_fuse="false"
       split_items="false"
       split_open="false"
       link_styles="false" />
    <inkscape:path-effect
       effect="skeletal"
       id="path-effect68"
       is_visible="true"
       lpeversion="1"
       pattern="m -123.78454,-70.394085 c -0.0127,3e-6 -0.0256,0.0012 -0.0384,0.0041 -0.55786,0.219929 -0.30116,0.946386 -0.29431,1.213089 l 7.3e-4,0.146142 c -0.12303,0.03566 -0.25085,0.0797 -0.38455,0.135246 l -0.0101,-0.0024 c -0.10817,0.028 -0.20983,0.05898 -0.30555,0.09294 l -0.10136,-0.217989 c -0.23889,-0.498667 -0.49505,-0.812563 -0.69389,-0.756193 -0.52032,0.246823 -0.11142,0.950536 -0.0497,1.213635 l -0.1443,0.261379 c -0.18295,0.168869 -0.16468,0.171925 -0.29844,0.271404 l -0.0984,-0.01669 c -0.33691,-0.432511 -0.64762,-0.697171 -0.82008,-0.632104 -0.42852,0.259815 0.14876,0.998506 0.26657,1.231312 l 0.26315,0.482793 c 0.42718,0.598549 0.76094,1.024556 0.97456,1.251103 0.42317,0.565793 1.02065,1.00689 1.59138,1.120102 4.38626,15.456057 8.75926,25.942869 10.63843,30.047329 0.13402,1.858509 0.29075,3.852112 0.47014,6.259845 0.94315,12.398201 2.41837,19.3082446 3.92672,18.9168416 l 3.9208,-0.295218 3.92079,-0.295218 c 1.536303,0.454861 1.973343,-6.8984916 1.04981,-19.2915516 -0.17806,-2.361875 -0.36682,-4.427272 -0.56605,-6.294902 1.526048,-2.909997 3.897915,-15.215811 8.321579,-31.280529 0.455362,-0.08023 0.841569,-0.377547 1.589503,-1.030066 0.224895,-0.26706 0.657128,-0.914026 0.954547,-1.696261 l -0.0017,-0.01212 c 0.316965,-0.313512 0.599287,-1.267393 0.352168,-1.336774 -0.704652,-0.107624 -1.03346,0.506986 -1.243495,0.755475 -0.115232,-0.180394 -0.277775,-0.342677 -0.496253,-0.477096 l 0.105296,-0.454033 c 0.106234,-0.488918 0.07447,-0.846716 -0.148196,-0.897645 -0.648231,-0.05826 -0.731414,0.665867 -0.847447,0.893587 l -0.06617,0.123522 c -0.13706,-0.02369 -0.282824,-0.04223 -0.43949,-0.05383 l -0.0084,-0.0065 c -0.118949,-0.0237 -0.232904,-0.04204 -0.34239,-0.05522 l 0.001,-0.227674 c -0.0047,-0.524493 -0.111441,-0.900961 -0.332376,-0.940281 -0.623811,-0.01921 -0.546841,0.752517 -0.607405,1.001163 l -0.262017,0.156841 c -0.257109,0.06241 -0.240431,0.07279 -0.417373,0.09821 l -0.0892,-0.0565 c -0.131279,-0.511548 -0.314138,-0.870629 -0.5132,-0.891105 -0.53978,0.03182 -0.313445,0.90624 -0.305092,1.153841 l 0.0361,0.522017 c 0.143377,0.690864 0.274102,1.195488 0.379312,1.479659 0.135925,0.581906 0.44845,1.141879 0.867081,1.502992 -3.78865,11.420735 -6.011372,20.521248 -7.213972,26.280107 -0.56527,-3.248097 -1.2339,-5.195134 -2.07079,-6.007349 a 6.9951758,6.9094772 85.694013 0 0 2.09172,-5.548284 6.9951758,6.9094772 85.694013 0 0 -7.4152,-6.456844 6.9951758,6.9094772 85.694013 0 0 -6.36475,7.494411 6.9951758,6.9094772 85.694013 0 0 2.89355,5.168965 c -0.9401,0.919221 -1.33467,2.412365 -1.41211,4.766118 -2.00992,-5.550132 -5.21764,-13.786157 -8.59463,-23.71078 0.1936,-0.283905 0.35234,-0.702526 0.58038,-1.370554 0.0648,-0.350528 0.12948,-1.152066 0.023,-2.025198 l -0.007,-0.01056 c 0.11953,-0.434007 -0.0762,-1.464419 -0.31004,-1.425605 -0.62623,0.196825 -0.6206,0.923269 -0.68154,1.249753 -0.17536,-0.123221 -0.38154,-0.209008 -0.62099,-0.244455 l -0.11702,-0.478387 c -0.12366,-0.479888 -0.29493,-0.798022 -0.48524,-0.797982 z"
       copytype="single_stretched"
       prop_scale="1"
       scale_y_rel="false"
       spacing="0"
       normal_offset="0"
       tang_offset="0"
       prop_units="false"
       vertical_pattern="false"
       hide_knot="false"
       fuse_tolerance="0" />
    <inkscape:path-effect
       effect="spiro"
       id="path-effect67"
       is_visible="true"
       lpeversion="1" />
    <inkscape:path-effect
       effect="skeletal"
       id="path-effect64"
       is_visible="true"
       lpeversion="1"
       pattern="m -123.78454,-70.394085 c -0.0127,3e-6 -0.0256,0.0012 -0.0384,0.0041 -0.55786,0.219929 -0.30116,0.946386 -0.29431,1.213089 l 7.3e-4,0.146142 c -0.12303,0.03566 -0.25085,0.0797 -0.38455,0.135246 l -0.0101,-0.0024 c -0.10817,0.028 -0.20983,0.05898 -0.30555,0.09294 l -0.10136,-0.217989 c -0.23889,-0.498667 -0.49505,-0.812563 -0.69389,-0.756193 -0.52032,0.246823 -0.11142,0.950536 -0.0497,1.213635 l -0.1443,0.261379 c -0.18295,0.168869 -0.16468,0.171925 -0.29844,0.271404 l -0.0984,-0.01669 c -0.33691,-0.432511 -0.64762,-0.697171 -0.82008,-0.632104 -0.42852,0.259815 0.14876,0.998506 0.26657,1.231312 l 0.26315,0.482793 c 0.42718,0.598549 0.76094,1.024556 0.97456,1.251103 0.42317,0.565793 1.02065,1.00689 1.59138,1.120102 4.38626,15.456057 8.75926,25.942869 10.63843,30.047329 0.13402,1.858509 0.29075,3.852112 0.47014,6.259845 0.94315,12.398201 2.41837,19.3082446 3.92672,18.9168416 l 3.9208,-0.295218 3.92079,-0.295218 c 1.536303,0.454861 1.973343,-6.8984916 1.04981,-19.2915516 -0.17806,-2.361875 -0.36682,-4.427272 -0.56605,-6.294902 1.526048,-2.909997 3.897915,-15.215811 8.321579,-31.280529 0.455362,-0.08023 0.841569,-0.377547 1.589503,-1.030066 0.224895,-0.26706 0.657128,-0.914026 0.954547,-1.696261 l -0.0017,-0.01212 c 0.316965,-0.313512 0.599287,-1.267393 0.352168,-1.336774 -0.704652,-0.107624 -1.03346,0.506986 -1.243495,0.755475 -0.115232,-0.180394 -0.277775,-0.342677 -0.496253,-0.477096 l 0.105296,-0.454033 c 0.106234,-0.488918 0.07447,-0.846716 -0.148196,-0.897645 -0.648231,-0.05826 -0.731414,0.665867 -0.847447,0.893587 l -0.06617,0.123522 c -0.13706,-0.02369 -0.282824,-0.04223 -0.43949,-0.05383 l -0.0084,-0.0065 c -0.118949,-0.0237 -0.232904,-0.04204 -0.34239,-0.05522 l 0.001,-0.227674 c -0.0047,-0.524493 -0.111441,-0.900961 -0.332376,-0.940281 -0.623811,-0.01921 -0.546841,0.752517 -0.607405,1.001163 l -0.262017,0.156841 c -0.257109,0.06241 -0.240431,0.07279 -0.417373,0.09821 l -0.0892,-0.0565 c -0.131279,-0.511548 -0.314138,-0.870629 -0.5132,-0.891105 -0.53978,0.03182 -0.313445,0.90624 -0.305092,1.153841 l 0.0361,0.522017 c 0.143377,0.690864 0.274102,1.195488 0.379312,1.479659 0.135925,0.581906 0.44845,1.141879 0.867081,1.502992 -3.78865,11.420735 -6.011372,20.521248 -7.213972,26.280107 -0.56527,-3.248097 -1.2339,-5.195134 -2.07079,-6.007349 a 6.9951758,6.9094772 85.694013 0 0 2.09172,-5.548284 6.9951758,6.9094772 85.694013 0 0 -7.4152,-6.456844 6.9951758,6.9094772 85.694013 0 0 -6.36475,7.494411 6.9951758,6.9094772 85.694013 0 0 2.89355,5.168965 c -0.9401,0.919221 -1.33467,2.412365 -1.41211,4.766118 -2.00992,-5.550132 -5.21764,-13.786157 -8.59463,-23.71078 0.1936,-0.283905 0.35234,-0.702526 0.58038,-1.370554 0.0648,-0.350528 0.12948,-1.152066 0.023,-2.025198 l -0.007,-0.01056 c 0.11953,-0.434007 -0.0762,-1.464419 -0.31004,-1.425605 -0.62623,0.196825 -0.6206,0.923269 -0.68154,1.249753 -0.17536,-0.123221 -0.38154,-0.209008 -0.62099,-0.244455 l -0.11702,-0.478387 c -0.12366,-0.479888 -0.29493,-0.798022 -0.48524,-0.797982 z"
       copytype="single_stretched"
       prop_scale="1"
       scale_y_rel="false"
       spacing="0"
       normal_offset="0"
       tang_offset="0"
       prop_units="false"
       vertical_pattern="false"
       hide_knot="false"
       fuse_tolerance="0" />
    <inkscape:path-effect
       effect="spiro"
       id="path-effect63"
       is_visible="true"
       lpeversion="1" />
    <filter
       style="color-interpolation-filters:sRGB"
       inkscape:label="Drop Shadow"
       id="filter41"
       x="-0.16344988"
       y="-0.21302988"
       width="1.4241914"
       height="1.5528633">
      <feFlood
         result="flood"
         in="SourceGraphic"
         flood-opacity="1.000000"
         flood-color="rgb(169,169,169)"
         id="feFlood40" />
      <feGaussianBlur
         result="blur"
         in="SourceGraphic"
         stdDeviation="0.700000"
         id="feGaussianBlur40" />
      <feOffset
         result="offset"
         in="blur"
         dx="1.000000"
         dy="1.000000"
         id="feOffset40" />
      <feComposite
         result="comp1"
         operator="in"
         in="flood"
         in2="offset"
         id="feComposite40" />
      <feComposite
         result="comp2"
         operator="over"
         in="SourceGraphic"
         in2="comp1"
         id="feComposite41" />
    </filter>
    <inkscape:path-effect
       effect="mirror_symmetry"
       start_point="-76.042914,-6.383582"
       end_point="-76.042914,11.525919"
       center_point="-76.042914,2.5711685"
       id="path-effect94-0"
       is_visible="true"
       lpeversion="1.2"
       lpesatellites=""
       mode="free"
       discard_orig_path="false"
       fuse_paths="false"
       oposite_fuse="false"
       split_items="false"
       split_open="false"
       link_styles="false" />
    <inkscape:path-effect
       effect="mirror_symmetry"
       start_point="-79.296425,-10.754743"
       end_point="-79.296425,30.126117"
       center_point="-79.296425,9.685687"
       id="path-effect93-9"
       is_visible="true"
       lpeversion="1.2"
       lpesatellites=""
       mode="free"
       discard_orig_path="false"
       fuse_paths="false"
       oposite_fuse="false"
       split_items="false"
       split_open="false"
       link_styles="false" />
    <inkscape:path-effect
       effect="mirror_symmetry"
       start_point="-185.21403,1.984382"
       end_point="-185.21403,61.984338"
       center_point="-185.21403,31.98436"
       id="path-effect92-7"
       is_visible="true"
       lpeversion="1.2"
       lpesatellites=""
       mode="free"
       discard_orig_path="false"
       fuse_paths="false"
       oposite_fuse="false"
       split_items="false"
       split_open="false"
       link_styles="false" />
    <inkscape:path-effect
       effect="mirror_symmetry"
       start_point="-76.042914,-6.383582"
       end_point="-76.042914,11.525919"
       center_point="-76.042914,2.5711685"
       id="path-effect94-8"
       is_visible="true"
       lpeversion="1.2"
       lpesatellites=""
       mode="free"
       discard_orig_path="false"
       fuse_paths="false"
       oposite_fuse="false"
       split_items="false"
       split_open="false"
       link_styles="false" />
    <inkscape:path-effect
       effect="mirror_symmetry"
       start_point="-79.389969,-10.848287"
       end_point="-79.389969,30.032573"
       center_point="-79.389969,9.592143"
       id="path-effect93-2"
       is_visible="true"
       lpeversion="1.2"
       lpesatellites=""
       mode="free"
       discard_orig_path="false"
       fuse_paths="false"
       oposite_fuse="false"
       split_items="false"
       split_open="false"
       link_styles="false" />
    <inkscape:path-effect
       effect="mirror_symmetry"
       start_point="-185.21403,1.984382"
       end_point="-185.21403,61.984338"
       center_point="-185.21403,31.98436"
       id="path-effect92-70"
       is_visible="true"
       lpeversion="1.2"
       lpesatellites=""
       mode="free"
       discard_orig_path="false"
       fuse_paths="false"
       oposite_fuse="false"
       split_items="false"
       split_open="false"
       link_styles="false" />
    <inkscape:path-effect
       effect="mirror_symmetry"
       start_point="-76.042914,-6.383582"
       end_point="-76.042914,11.525919"
       center_point="-76.042914,2.5711685"
       id="path-effect94-8-9"
       is_visible="true"
       lpeversion="1.2"
       lpesatellites=""
       mode="free"
       discard_orig_path="false"
       fuse_paths="false"
       oposite_fuse="false"
       split_items="false"
       split_open="false"
       link_styles="false" />
    <inkscape:path-effect
       effect="mirror_symmetry"
       start_point="-79.389969,-10.848287"
       end_point="-79.389969,30.032573"
       center_point="-79.389969,9.592143"
       id="path-effect93-2-0"
       is_visible="true"
       lpeversion="1.2"
       lpesatellites=""
       mode="free"
       discard_orig_path="false"
       fuse_paths="false"
       oposite_fuse="false"
       split_items="false"
       split_open="false"
       link_styles="false" />
    <inkscape:path-effect
       effect="mirror_symmetry"
       start_point="-185.21403,1.984382"
       end_point="-185.21403,61.984338"
       center_point="-185.21403,31.98436"
       id="path-effect92-70-1"
       is_visible="true"
       lpeversion="1.2"
       lpesatellites=""
       mode="free"
       discard_orig_path="false"
       fuse_paths="false"
       oposite_fuse="false"
       split_items="false"
       split_open="false"
       link_styles="false" />
    <inkscape:path-effect
       effect="mirror_symmetry"
       start_point="-76.042914,-6.383582"
       end_point="-76.042914,11.525919"
       center_point="-76.042914,2.5711685"
       id="path-effect94-8-9-0"
       is_visible="true"
       lpeversion="1.2"
       lpesatellites=""
       mode="free"
       discard_orig_path="false"
       fuse_paths="false"
       oposite_fuse="false"
       split_items="false"
       split_open="false"
       link_styles="false" />
    <inkscape:path-effect
       effect="mirror_symmetry"
       start_point="-185.21403,1.984382"
       end_point="-185.21403,61.984338"
       center_point="-185.21403,31.98436"
       id="path-effect92-70-1-4"
       is_visible="true"
       lpeversion="1.2"
       lpesatellites=""
       mode="free"
       discard_orig_path="false"
       fuse_paths="false"
       oposite_fuse="false"
       split_items="false"
       split_open="false"
       link_styles="false" />
    <inkscape:path-effect
       effect="mirror_symmetry"
       start_point="68.782001,112.94401"
       end_point="68.782001,155.88085"
       center_point="68.782001,134.41243"
       id="path-effect95-2"
       is_visible="true"
       lpeversion="1.2"
       lpesatellites=""
       mode="free"
       discard_orig_path="false"
       fuse_paths="false"
       oposite_fuse="false"
       split_items="false"
       split_open="false"
       link_styles="false" />
  </defs>
  <g
     inkscape:label="Start"
     inkscape:groupmode="layer"
     id="layer1"
     transform="translate(-22.164584,-13.683254)"
     style="display:none">
    <path
       id="path2"
       style="display:none;fill:#fcc625;fill-opacity:1;stroke-width:0.265386"
       d="m 107.78567,63.777502 a 62.5,62.5 0 0 0 -62.499545,62.500058 62.5,62.5 0 0 0 62.499545,62.50006 62.5,62.5 0 0 0 62.50006,-62.50006 62.5,62.5 0 0 0 -62.50006,-62.500058 z m 0,7.500318 a 55,55 0 0 1 55.00026,54.99974 55,55 0 0 1 -55.00026,55.00026 55,55 0 0 1 -54.999745,-55.00026 55,55 0 0 1 54.999745,-54.99974 z" />
    <g
       id="g41"
       inkscape:export-filename=".\g41.svg"
       inkscape:export-xdpi="96"
       inkscape:export-ydpi="96">
      <path
         id="path3"
         style="fill:#20f7cf;stroke-width:0.149747"
         d="M 43.132825,23.075954 A 11.377084,11.377084 0 0 1 31.755741,34.453038 11.377084,11.377084 0 0 1 20.378657,23.075954 11.377084,11.377084 0 0 1 31.755741,11.698871 11.377084,11.377084 0 0 1 43.132825,23.075954 Z" />
      <g
         id="g4"
         transform="matrix(1.1811628,0,0,0.96445092,-123.72881,9.6713899)"
         style="filter:url(#filter41)">
        <path
           id="rect3"
           style="stroke-width:0.209455"
           d="m 125.99766,11.511736 h 5.70882 v 3.773825 h -5.70882 z" />
        <path
           id="rect4"
           style="stroke-width:0.0600091"
           d="m 129.33952,17.341757 6.93652,-3.943108 -6.93652,-3.9431094 z"
           sodipodi:nodetypes="cccc" />
      </g>
    </g>
  </g>
  <g
     inkscape:groupmode="layer"
     id="layer5"
     inkscape:label="FamilyMode"
     transform="translate(-1.7859268,-1.9843826)">
    <path
       id="path41"
       style="fill:#fcc625;fill-opacity:1;stroke-width:0.787038;stroke-dasharray:none"
       d="M 33.956853,8.6510502 C 18.883794,8.65105 6.6646652,20.870179 6.6646656,35.943238 c 0,15.073059 12.2191284,27.292187 27.2921874,27.292187 15.073059,0 27.292187,-12.219128 27.292187,-27.292187 0,-15.073059 -12.219128,-27.2921878 -27.292187,-27.2921878 z m 0,3.4115238 c 13.188926,1e-6 23.880663,10.691738 23.880663,23.880664 -10e-7,13.188926 -10.691737,23.880662 -23.880663,23.880663 -13.188926,0 -23.880663,-10.691737 -23.880664,-23.880663 0,-13.188927 10.691737,-23.880664 23.880664,-23.880664 z"
       sodipodi:nodetypes="ssssssssss" />
    <path
       id="path70"
       style="fill:#b30000;fill-opacity:1;stroke-width:0.302001;stroke-dasharray:none"
       d="m -76.042914,-6.3835821 c -6.176352,0.1897186 -5.652943,4.2382536 -5.659603,8.955009 0.0068,4.7165562 2.476804,8.6244711 5.659603,8.9544921 z m 0,0 c 6.176352,0.1897186 5.652943,4.2382536 5.659603,8.955009 -0.0068,4.7165562 -2.476804,8.6244711 -5.659603,8.9544921 z"
       inkscape:path-effect="#path-effect94"
       inkscape:original-d="m -76.042914,-6.3835821 c -6.176352,0.1897186 -5.652943,4.2382536 -5.659603,8.955009 0.0068,4.7165562 2.476804,8.6244711 5.659603,8.9544921 z"
       transform="translate(7.0469413,8.8399396)"
       sodipodi:nodetypes="cccc" />
    <path
       id="path71"
       style="fill:#b30000;stroke-width:0.166292"
       d="m -89.881796,8.9398103 c 5.421232,12.5898557 17.335222,-5.2184434 4.608949,14.3054687 -1.447177,2.220175 -0.697357,7.013489 -3.938064,-2.642796 -1.072017,-3.194271 -2.32003,-7.81109 -3.665465,-11.6498877 -3.692257,-10.5347546 -8.201714,-16.601828 -7.834854,-28.0371423 1.491166,-1.441856 3.095641,3.476296 4.529812,9.3804727 1.705501,7.0211869 2.995269,9.6299135 3.731016,12.0285245 0.51239,1.6704458 1.370375,3.83268 2.568606,6.6153601 z m 20.983654,0 c -5.421232,12.5898557 -17.335222,-5.2184434 -4.608949,14.3054687 1.447177,2.220175 0.697357,7.013489 3.938064,-2.642796 1.072017,-3.194271 2.32003,-7.81109 3.665465,-11.6498877 3.692257,-10.5347546 8.201714,-16.601828 7.834854,-28.0371423 -1.491166,-1.441856 -3.095641,3.476296 -4.529812,9.3804727 -1.705501,7.0211869 -2.995269,9.6299135 -3.731016,12.0285245 -0.51239,1.6704458 -1.370375,3.83268 -2.568606,6.6153601 z"
       sodipodi:nodetypes="sssscsss"
       inkscape:path-effect="#path-effect93"
       inkscape:original-d="m -89.881796,8.9398103 c 5.421232,12.5898557 17.335222,-5.2184434 4.608949,14.3054687 -1.447177,2.220175 -0.697357,7.013489 -3.938064,-2.642796 -1.072017,-3.194271 -2.32003,-7.81109 -3.665465,-11.6498877 -3.692257,-10.5347546 -8.201714,-16.601828 -7.834854,-28.0371423 1.491166,-1.441856 3.095641,3.476296 4.529812,9.3804727 1.705501,7.0211869 2.995269,9.6299135 3.731016,12.0285245 0.51239,1.6704458 1.370375,3.83268 2.568606,6.6153601 z"
       transform="translate(10.393996,7.2214809)" />
    <path
       id="path89"
       style="fill:#b30000;fill-opacity:1;stroke-width:0.300488;stroke-dasharray:none"
       d="m -185.21403,1.9843826 c -0.26496,-5.449034 -4.17007,-4.7209256 -4.54036,-3.7469412 -2.04855,5.3882676 -2.66712,0.7679336 -8.1642,10.2885616 -2.79634,4.843102 -0.21096,11.783388 -0.29568,23.458616 -0.11794,16.253503 5.82049,30.000025 13.00024,29.999719 z m 0,0 c 0.26496,-5.449034 4.17007,-4.7209256 4.54036,-3.7469412 2.04855,5.3882676 2.66712,0.7679336 8.1642,10.2885616 2.79634,4.843102 0.21096,11.783388 0.29568,23.458616 0.11794,16.253503 -5.82049,30.000025 -13.00024,29.999719 z"
       sodipodi:nodetypes="cssscc"
       transform="matrix(0.59789113,0,0,0.9876798,41.741853,18.398143)"
       inkscape:original-d="m -185.21403,1.9843826 c -0.26496,-5.449034 -4.17007,-4.7209256 -4.54036,-3.7469412 -2.04855,5.3882676 -2.66712,0.7679336 -8.1642,10.2885616 -2.79634,4.843102 -0.21096,11.783388 -0.29568,23.458616 -0.11794,16.253503 5.82049,30.000025 13.00024,29.999719 z"
       inkscape:path-effect="#path-effect92" />
    <path
       id="path70-9"
       style="fill:#b30000;fill-opacity:1;stroke-width:0.302001;stroke-dasharray:none"
       d="m -76.042914,-6.3835821 c -6.176352,0.1897186 -5.652943,4.2382536 -5.659603,8.955009 0.0068,4.7165562 2.476804,8.6244711 5.659603,8.9544921 z m 0,0 c 6.176352,0.1897186 5.652943,4.2382536 5.659603,8.955009 -0.0068,4.7165562 -2.476804,8.6244711 -5.659603,8.9544921 z"
       inkscape:path-effect="#path-effect94-0"
       inkscape:original-d="m -76.042914,-6.3835821 c -6.176352,0.1897186 -5.652943,4.2382536 -5.659603,8.955009 0.0068,4.7165562 2.476804,8.6244711 5.659603,8.9544921 z"
       transform="translate(-43.822994,8.2348704)"
       sodipodi:nodetypes="cccc" />
    <path
       id="path71-5"
       style="fill:#b30000;stroke-width:0.166292"
       d="m -86.311037,21.163749 c -1.85624,5.213889 -8.294558,-12.2453135 -9.422938,-18.7472483 -1.555127,-8.9609263 -3.788063,-17.3362407 -1.703203,-20.2849717 5.122969,-8.568567 1.237548,5.306734 4.252519,18.44823245 2.935946,12.79704555 10.876251,9.34122835 6.873622,20.58398755 z m 14.029224,0 c 1.85624,5.213889 8.294558,-12.2453135 9.422938,-18.7472483 1.555127,-8.9609263 3.788063,-17.3362407 1.703203,-20.2849717 -5.122969,-8.568567 -1.237548,5.306734 -4.252519,18.44823245 C -68.344137,13.376807 -76.284442,9.9209898 -72.281813,21.163749 Z"
       sodipodi:nodetypes="sscss"
       inkscape:path-effect="#path-effect93-9"
       inkscape:original-d="m -86.311037,21.163749 c -1.85624,5.213889 -8.294558,-12.2453135 -9.422938,-18.7472483 -1.555127,-8.9609263 -3.788063,-17.3362407 -1.703203,-20.2849717 5.122969,-8.568567 1.237548,5.306734 4.252519,18.44823245 2.935946,12.79704555 10.876251,9.34122835 6.873622,20.58398755 z"
       transform="translate(-40.569484,8.6743904)" />
    <path
       id="path89-6"
       style="fill:#b30000;fill-opacity:1;stroke-width:0.300488;stroke-dasharray:none"
       d="m -185.21403,1.9843826 c -0.26496,-5.449034 -4.17007,-4.7209256 -4.54036,-3.7469412 -2.04855,5.3882676 -2.66712,0.7679336 -8.1642,10.2885616 -2.79634,4.843102 -0.21096,11.783388 -0.29568,23.458616 -0.11794,16.253503 5.82049,30.000025 13.00024,29.999719 z m 0,0 c 0.26496,-5.449034 4.17007,-4.7209256 4.54036,-3.7469412 2.04855,5.3882676 2.66712,0.7679336 8.1642,10.2885616 2.79634,4.843102 0.21096,11.783388 0.29568,23.458616 0.11794,16.253503 -5.82049,30.000025 -13.00024,29.999719 z"
       sodipodi:nodetypes="cssscc"
       transform="matrix(0.59789113,0,0,0.9876798,-9.1280829,17.79307)"
       inkscape:original-d="m -185.21403,1.9843826 c -0.26496,-5.449034 -4.17007,-4.7209256 -4.54036,-3.7469412 -2.04855,5.3882676 -2.66712,0.7679336 -8.1642,10.2885616 -2.79634,4.843102 -0.21096,11.783388 -0.29568,23.458616 -0.11794,16.253503 5.82049,30.000025 13.00024,29.999719 z"
       inkscape:path-effect="#path-effect92-7" />
    <path
       id="path70-8"
       style="fill:#b30000;fill-opacity:1;stroke-width:0.302001;stroke-dasharray:none"
       d="m -76.042914,-6.3835821 c -4.443835,-0.021445 -6.082891,4.2382536 -5.659603,8.955009 0.932842,4.9480666 2.476804,8.6244711 5.659603,8.9544921 z m 0,0 c 4.443835,-0.021445 6.082891,4.2382536 5.659603,8.955009 -0.932842,4.9480666 -2.476804,8.6244711 -5.659603,8.9544921 z"
       inkscape:path-effect="#path-effect94-8"
       inkscape:original-d="m -76.042914,-6.3835821 c -4.443835,-0.021445 -6.082891,4.2382536 -5.659603,8.955009 0.932842,4.9480666 2.476804,8.6244711 5.659603,8.9544921 z"
       transform="translate(-94.759505,9.1980777)"
       sodipodi:nodetypes="cccc" />
    <path
       id="path71-8"
       style="fill:#b30000;stroke-width:0.166292"
       d="m -89.881796,8.9398103 c 9.981585,9.3947957 17.335222,-5.2184434 4.608949,14.3054687 -1.447177,2.220175 -0.697357,7.013489 -3.938064,-2.642796 -1.072017,-3.194271 -3.378363,-8.141819 -4.723798,-11.9806169 -3.692257,-10.5347546 -9.061041,-23.5675571 -6.776521,-27.7064131 1.491166,-1.441856 3.010396,10.2954426 4.926687,16.0612018 2.512801,7.5605471 4.093756,10.2605099 5.902747,11.9631555 z m 20.983654,0 c -9.981585,9.3947957 -17.335222,-5.2184434 -4.608949,14.3054687 1.447177,2.220175 0.697357,7.013489 3.938064,-2.642796 1.072017,-3.194271 3.378363,-8.141819 4.723798,-11.9806169 3.692257,-10.5347546 9.061041,-23.5675571 6.776521,-27.7064131 -1.491166,-1.441856 -3.010396,10.2954426 -4.926687,16.0612018 -2.512801,7.5605471 -4.093756,10.2605099 -5.902747,11.9631555 z"
       sodipodi:nodetypes="sssscss"
       inkscape:path-effect="#path-effect93-2"
       inkscape:original-d="m -89.881796,8.9398103 c 9.981585,9.3947957 17.335222,-5.2184434 4.608949,14.3054687 -1.447177,2.220175 -0.697357,7.013489 -3.938064,-2.642796 -1.072017,-3.194271 -3.378363,-8.141819 -4.723798,-11.9806169 -3.692257,-10.5347546 -9.061041,-23.5675571 -6.776521,-27.7064131 1.491166,-1.441856 3.010396,10.2954426 4.926687,16.0612018 2.512801,7.5605471 4.093756,10.2605099 5.902747,11.9631555 z"
       transform="translate(-91.41245,7.5796177)" />
    <path
       id="path89-1"
       style="fill:#b30000;fill-opacity:1;stroke-width:0.300488;stroke-dasharray:none"
       d="m -185.21403,1.9843826 c -0.26496,-5.449034 -4.17007,-4.7209256 -4.54036,-3.7469412 -2.04855,5.3882676 -2.66712,0.7679336 -8.1642,10.2885616 -2.79634,4.843102 -0.21096,11.783388 -0.29568,23.458616 -0.11794,16.253503 5.82049,30.000025 13.00024,29.999719 z m 0,0 c 0.26496,-5.449034 4.17007,-4.7209256 4.54036,-3.7469412 2.04855,5.3882676 2.66712,0.7679336 8.1642,10.2885616 2.79634,4.843102 0.21096,11.783388 0.29568,23.458616 0.11794,16.253503 -5.82049,30.000025 -13.00024,29.999719 z"
       sodipodi:nodetypes="cssscc"
       transform="matrix(0.59789113,0,0,0.9876798,-60.064593,18.756278)"
       inkscape:original-d="m -185.21403,1.9843826 c -0.26496,-5.449034 -4.17007,-4.7209256 -4.54036,-3.7469412 -2.04855,5.3882676 -2.66712,0.7679336 -8.1642,10.2885616 -2.79634,4.843102 -0.21096,11.783388 -0.29568,23.458616 -0.11794,16.253503 5.82049,30.000025 13.00024,29.999719 z"
       inkscape:path-effect="#path-effect92-70" />
    <path
       id="path70-8-2"
       style="fill:#b30000;fill-opacity:1;stroke-width:0.302001;stroke-dasharray:none"
       d="m -76.042914,-6.3835821 c -4.443835,-0.021445 -6.082891,4.2382536 -5.659603,8.955009 0.932842,4.9480666 2.476804,8.6244711 5.659603,8.9544921 z m 0,0 c 4.443835,-0.021445 6.082891,4.2382536 5.659603,8.955009 -0.932842,4.9480666 -2.476804,8.6244711 -5.659603,8.9544921 z"
       inkscape:path-effect="#path-effect94-8-9"
       inkscape:original-d="m -76.042914,-6.3835821 c -4.443835,-0.021445 -6.082891,4.2382536 -5.659603,8.955009 0.932842,4.9480666 2.476804,8.6244711 5.659603,8.9544921 z"
       transform="translate(-142.66055,10.373614)"
       sodipodi:nodetypes="cccc" />
    <path
       id="path89-1-9"
       style="fill:#b30000;fill-opacity:1;stroke-width:0.300488;stroke-dasharray:none"
       d="m -185.21403,1.9843826 c -0.26496,-5.449034 -4.17007,-4.7209256 -4.54036,-3.7469412 -2.04855,5.3882676 -2.66712,0.7679336 -8.1642,10.2885616 -2.79634,4.843102 -0.21096,11.783388 -0.29568,23.458616 -0.11794,16.253503 5.82049,30.000025 13.00024,29.999719 z m 0,0 c 0.26496,-5.449034 4.17007,-4.7209256 4.54036,-3.7469412 2.04855,5.3882676 2.66712,0.7679336 8.1642,10.2885616 2.79634,4.843102 0.21096,11.783388 0.29568,23.458616 0.11794,16.253503 -5.82049,30.000025 -13.00024,29.999719 z"
       sodipodi:nodetypes="cssscc"
       transform="matrix(0.59789113,0,0,0.9876798,-107.96564,19.931814)"
       inkscape:original-d="m -185.21403,1.9843826 c -0.26496,-5.449034 -4.17007,-4.7209256 -4.54036,-3.7469412 -2.04855,5.3882676 -2.66712,0.7679336 -8.1642,10.2885616 -2.79634,4.843102 -0.21096,11.783388 -0.29568,23.458616 -0.11794,16.253503 5.82049,30.000025 13.00024,29.999719 z"
       inkscape:path-effect="#path-effect92-70-1" />
    <path
       id="path94"
       style="fill:#b30000;stroke-width:0.302001"
       d="m 53.329328,133.78032 c 0,5.92834 2.819382,13.0757 7.065775,11.99509 14.670466,-3.7333 5.699731,3.27832 1.26504,10.42207 -0.735698,1.18512 -11.717214,-8.65084 -11.717214,-20.50752 0,-11.85668 2.525986,-23.64484 3.912005,-23.48765 2.916258,0.33073 -0.525605,9.72133 -0.525606,21.57801 z m 29.782814,0 c 0,5.92834 -2.819382,13.0757 -7.065775,11.99509 -14.670466,-3.7333 -5.699731,3.27832 -1.26504,10.42207 0.735698,1.18512 11.717214,-8.65084 11.717214,-20.50752 0,-11.85668 -2.525986,-23.64484 -3.912005,-23.48765 -2.916258,0.33073 0.525605,9.72133 0.525606,21.57801 z"
       inkscape:path-effect="#path-effect95"
       inkscape:original-d="m 53.329328,133.78032 c 0,5.92834 2.819382,13.0757 7.065775,11.99509 14.670466,-3.7333 5.699731,3.27832 1.26504,10.42207 -0.735698,1.18512 -11.717214,-8.65084 -11.717214,-20.50752 0,-11.85668 2.525986,-23.64484 3.912005,-23.48765 2.916258,0.33073 -0.525605,9.72133 -0.525606,21.57801 z"
       sodipodi:nodetypes="ssssss"
       transform="translate(-287.40364,-122.83281)" />
    <path
       id="path70-8-2-5"
       style="fill:#b30000;fill-opacity:1;stroke-width:0.302001;stroke-dasharray:none"
       d="m -76.042914,-6.3835821 c -4.443835,-0.021445 -6.082891,4.2382536 -5.659603,8.955009 0.932842,4.9480666 2.476804,8.6244711 5.659603,8.9544921 z m 0,0 c 4.443835,-0.021445 6.082891,4.2382536 5.659603,8.955009 -0.932842,4.9480666 -2.476804,8.6244711 -5.659603,8.9544921 z"
       inkscape:path-effect="#path-effect94-8-9-0"
       inkscape:original-d="m -76.042914,-6.3835821 c -4.443835,-0.021445 -6.082891,4.2382536 -5.659603,8.955009 0.932842,4.9480666 2.476804,8.6244711 5.659603,8.9544921 z"
       transform="translate(-47.08266,144.4338)"
       sodipodi:nodetypes="cccc" />
    <path
       id="path89-1-9-5"
       style="fill:#b30000;fill-opacity:1;stroke-width:0.300488;stroke-dasharray:none"
       d="m -185.21403,1.9843826 c -0.26496,-5.449034 -4.17007,-4.7209256 -4.54036,-3.7469412 -2.04855,5.3882676 -2.66712,0.7679336 -8.1642,10.2885616 -2.79634,4.843102 -0.21096,11.783388 -0.29568,23.458616 -0.11794,16.253503 5.82049,30.000025 13.00024,29.999719 z m 0,0 c 0.26496,-5.449034 4.17007,-4.7209256 4.54036,-3.7469412 2.04855,5.3882676 2.66712,0.7679336 8.1642,10.2885616 2.79634,4.843102 0.21096,11.783388 0.29568,23.458616 0.11794,16.253503 -5.82049,30.000025 -13.00024,29.999719 z"
       sodipodi:nodetypes="cssscc"
       transform="matrix(0.59789113,0,0,0.9876798,-12.38775,153.992)"
       inkscape:original-d="m -185.21403,1.9843826 c -0.26496,-5.449034 -4.17007,-4.7209256 -4.54036,-3.7469412 -2.04855,5.3882676 -2.66712,0.7679336 -8.1642,10.2885616 -2.79634,4.843102 -0.21096,11.783388 -0.29568,23.458616 -0.11794,16.253503 5.82049,30.000025 13.00024,29.999719 z"
       inkscape:path-effect="#path-effect92-70-1-4" />
    <path
       id="path94-5"
       style="fill:#b30000;stroke-width:0.302001"
       d="m 54.189224,137.08761 c 0.929549,3.92359 1.562611,9.76841 5.809004,8.6878 14.670466,-3.7333 -0.09875,2.20017 1.661915,10.42207 0.567594,2.65054 -1.605087,4.65885 -4.718927,-3.8773 -1.77233,-4.8586 -6.046308,-10.77882 -6.998287,-16.63022 -1.918228,-11.79053 -1.693398,-21.10121 -0.718203,-22.09859 2.651674,-2.71198 2.087791,11.35377 4.964498,23.49624 z m 29.185554,0 c -0.929549,3.92359 -1.562611,9.76841 -5.809004,8.6878 -14.670466,-3.7333 0.09875,2.20017 -1.661915,10.42207 -0.567594,2.65054 1.605087,4.65885 4.718927,-3.8773 1.77233,-4.8586 6.046308,-10.77882 6.998287,-16.63022 1.918228,-11.79053 1.693398,-21.10121 0.718203,-22.09859 -2.651674,-2.71198 -2.087791,11.35377 -4.964498,23.49624 z"
       inkscape:path-effect="#path-effect95-2"
       inkscape:original-d="m 54.189224,137.08761 c 0.929549,3.92359 1.562611,9.76841 5.809004,8.6878 14.670466,-3.7333 -0.09875,2.20017 1.661915,10.42207 0.567594,2.65054 -1.605087,4.65885 -4.718927,-3.8773 -1.77233,-4.8586 -6.046308,-10.77882 -6.998287,-16.63022 -1.918228,-11.79053 -1.693398,-21.10121 -0.718203,-22.09859 2.651674,-2.71198 2.087791,11.35377 4.964498,23.49624 z"
       sodipodi:nodetypes="sssssss"
       transform="translate(-191.82575,11.22738)" />
  </g>
</svg>
